<svg xmlns="http://www.w3.org/2000/svg" width="48" height="30" viewBox="0 0 48 30"><g><g><g><g><path fill="#231f20" d="M0 4a4 4 0 0 1 4-4h40a4 4 0 0 1 4 4v22a4 4 0 0 1-4 4H4a4 4 0 0 1-4-4z"/></g></g><g><g><path fill="#f90" d="M27.545 17.95c-1.735 1.235-4.25 1.892-6.417 1.892-3.035 0-5.77-1.082-7.838-2.885-.162-.141-.017-.334.178-.225 2.231 1.253 4.991 2.008 7.842 2.008 1.923 0 4.037-.385 5.983-1.181.293-.12.539.186.252.39"/></g><g><path fill="#f90" d="M28.46 17.156c-.222-.274-1.467-.13-2.026-.065-.17.019-.196-.123-.043-.227.993-.673 2.62-.479 2.81-.253.19.227-.05 1.8-.981 2.552-.144.116-.28.054-.216-.099.21-.504.679-1.634.456-1.908"/></g><g><path fill="#fff" d="M32.288 12.143c.293 0 .5.125.604.443.12.366.138.829.138 1.215 0 .588-.034 1.552-.75 1.552-.725 0-.716-1.195-.716-1.754 0-.56.042-1.456.724-1.456zm-.008-.933c-1.338 0-2.08 1.107-2.08 2.533 0 1.415.733 2.552 2.08 2.552 1.294 0 2.113-1.108 2.113-2.504 0-1.444-.741-2.581-2.113-2.581z"/></g><g><path fill="#fff" d="M36.168 16.199h-.921c-.093-.006-.166-.077-.166-.165l-.001-4.578c.008-.084.084-.15.177-.15h.857c.08.005.147.058.165.129v.7h.017c.259-.626.621-.925 1.26-.925.413 0 .82.145 1.078.54.242.365.242.982.242 1.425v2.88c-.01.08-.086.144-.177.144h-.927c-.085-.006-.155-.066-.165-.144V13.57c0-.501.06-1.233-.578-1.233a.604.604 0 0 0-.535.366c-.129.28-.147.559-.147.867v2.464c-.001.091-.08.165-.18.165"/></g><g><path fill="#fff" d="M26.273 12.11v-.654c0-.1.079-.166.172-.166h3.038c.097 0 .175.068.176.165v.56c-.002.095-.084.218-.23.413l-1.574 2.167c.585-.013 1.203.072 1.734.36.12.064.152.16.16.255v.698c0 .095-.108.207-.223.149-.935-.473-2.176-.524-3.21.006-.105.054-.216-.056-.216-.152v-.664c0-.105.002-.287.113-.449l1.823-2.523H26.45c-.097 0-.175-.067-.176-.165"/></g><g><path fill="#fff" d="M24.567 16.202c-.307-.246-.362-.36-.53-.595-.507.5-.867.648-1.523.648-.779 0-1.384-.462-1.384-1.39 0-.723.406-1.215.985-1.457.502-.212 1.202-.25 1.738-.308v-.116c0-.212.017-.463-.112-.647-.113-.164-.328-.231-.519-.231-.352 0-.666.174-.743.535-.016.08-.077.16-.16.164l-.896-.093c-.076-.017-.16-.075-.138-.187.206-1.049 1.188-1.365 2.066-1.365.45 0 1.038.116 1.393.444.45.405.407.946.407 1.534v1.39c0 .418.18.6.348.826.059.08.073.178-.003.237-.188.153-.524.434-.709.592l-.002-.002a.196.196 0 0 1-.218.02zm-.714-2.194v-.194c-.668 0-1.374.139-1.374.904 0 .388.207.65.562.65.26 0 .493-.155.64-.407.18-.311.172-.603.172-.953z"/></g><g><path fill="#fff" d="M15.2 16.199h-.925c-.088-.006-.158-.07-.165-.151v-4.577c0-.092.08-.164.179-.164h.86c.091.004.163.07.17.153v.598h.016c.225-.578.647-.848 1.217-.848.578 0 .94.27 1.2.848.223-.578.732-.848 1.275-.848.389 0 .811.154 1.07.5.294.387.233.945.233 1.436v2.888c0 .091-.08.165-.179.165h-.922c-.094-.006-.166-.077-.166-.165l-.001-2.426c0-.193.018-.674-.025-.857-.07-.308-.277-.395-.544-.395a.613.613 0 0 0-.552.376c-.095.231-.087.616-.087.876v2.426c0 .091-.08.165-.178.165h-.923c-.093-.006-.166-.077-.166-.165l-.001-2.426c0-.51.086-1.261-.57-1.261-.664 0-.637.731-.637 1.261l-.001 2.426c0 .091-.08.165-.179.165"/></g><g><path fill="#fff" d="M12.447 16.202c-.307-.246-.362-.36-.53-.595-.507.5-.866.648-1.523.648-.778 0-1.384-.462-1.384-1.39 0-.723.407-1.215.986-1.457.502-.212 1.202-.25 1.738-.308v-.116c0-.212.017-.463-.113-.647-.112-.164-.328-.231-.518-.231-.353 0-.666.174-.743.535-.016.08-.077.16-.161.164l-.895-.093c-.077-.017-.16-.075-.139-.187.206-1.049 1.188-1.365 2.067-1.365.45 0 1.038.116 1.392.444.45.405.407.946.407 1.534v1.39c0 .418.18.6.348.826.06.08.073.178-.002.237-.189.153-.525.434-.71.592l-.002-.002a.197.197 0 0 1-.218.02zm-.723-2.194v-.194c-.664 0-1.365.139-1.365.904 0 .388.206.65.558.65.257 0 .49-.155.635-.407.18-.311.172-.603.172-.953z"/></g></g></g></g></svg>