<svg xmlns="http://www.w3.org/2000/svg" width="21" height="19" viewBox="0 0 21 19"><defs><clipPath id="mdspa"><path d="M10.78 15.65l-.1-.1c-4.76-4.31-7.9-7.16-7.9-10.05 0-2 1.5-3.5 3.5-3.5 1.54 0 3.04.99 3.57 2.36h1.87C12.24 2.99 13.74 2 15.28 2c2 0 3.5 1.5 3.5 3.5 0 2.89-3.14 5.74-7.9 10.05zm0-13.56C9.69.81 8.02 0 6.28 0 3.2 0 .78 2.42.78 5.5c0 3.78 3.4 6.86 8.55 11.54l1.45 1.31 1.45-1.32c5.15-4.67 8.55-7.75 8.55-11.53 0-3.08-2.42-5.5-5.5-5.5-1.74 0-3.41.81-4.5 2.09z"/></clipPath></defs><g><g><g/><g clip-path="url(#mdspa)"><g><path fill="#4d4d4d" d="M-2.22-4h26v26h-26z"/></g></g></g></g></svg>