<svg xmlns="http://www.w3.org/2000/svg" width="48" height="30" viewBox="0 0 48 30"><g><g><g><g><path fill="#14457c" d="M0 4a4 4 0 0 1 4-4h40a4 4 0 0 1 4 4v22a4 4 0 0 1-4 4H4a4 4 0 0 1-4-4z"/></g></g><g><g><path fill="#d82332" d="M26.855 14.969c0 4.953-3.99 8.968-8.912 8.968-4.923 0-8.913-4.015-8.913-8.968C9.03 10.015 13.02 6 17.943 6c4.922 0 8.912 4.015 8.912 8.969"/></g><g><path fill="#f1ab3e" d="M29.992 6a8.85 8.85 0 0 0-5.983 2.321 9.1 9.1 0 0 0-.9.95h1.801c.246.301.473.618.68.95h-3.16c-.189.305-.361.621-.514.95h4.187c.143.307.269.624.377.95H21.54c-.103.309-.19.625-.259.948h5.459a9.098 9.098 0 0 1-.259 4.749H21.54c.108.325.234.642.377.95h4.187a9.028 9.028 0 0 1-.514.95h-3.16c.207.33.434.648.68.948h1.8a8.924 8.924 0 0 1-.9.95 8.849 8.849 0 0 0 5.983 2.321c4.923 0 8.913-4.015 8.913-8.968S34.915 6 29.992 6"/></g><g><path fill="#f1ab3e" d="M37.869 19.882v-.065h.031c.011 0 .028 0 .038.005a.033.033 0 0 1 .015.026.035.035 0 0 1-.015.03c-.011.005-.024.004-.036.004zm0 .155v-.105h.043l.039.105h.065l-.046-.117a.072.072 0 0 0 .044-.068.083.083 0 0 0-.032-.067c-.02-.012-.043-.012-.065-.012h-.107v.264zm.039.083a.22.22 0 0 1 0-.44.22.22 0 1 1 0 .44zm-.288-.22c0 .16.129.29.288.29.16 0 .288-.13.288-.29a.288.288 0 1 0-.576 0z"/></g><g><path fill="#fffffe" d="M37.869 17.042v-.064h.031c.011 0 .028-.002.038.004a.034.034 0 0 1 .014.026c0 .011-.005.023-.015.03-.01.006-.024.004-.036.004zm0 .155v-.105h.043l.039.105h.065l-.046-.117a.073.073 0 0 0 .043-.068.08.08 0 0 0-.032-.066.114.114 0 0 0-.064-.014h-.107v.265zm.038.083a.22.22 0 0 1-.218-.22.22.22 0 0 1 .218-.22.22.22 0 0 1 0 .44zm-.287-.22c0 .16.13.29.287.29.16 0 .288-.13.288-.29a.288.288 0 1 0-.575 0z"/></g><g><path fill="#0c2d5a" d="M35 15.905c0-.725.314-1.239.755-1.239.335 0 .516.254.516.723 0 .73-.319 1.244-.772 1.244-.331 0-.499-.246-.499-.728zm1.496-1.65c-.264-.351-.548-.605-.923-.605-.489 0-.933.373-1.224.921a7.91 7.91 0 0 1-.824-.228c.032-.305.046-.49.043-.553h-.89c-.12 1.145-.335 2.305-.503 3.45l-.045.25h.968c.13-.855.23-1.564.305-2.127.33-.3.496-.562.83-.545-.148.36-.235.775-.235 1.2 0 .925.465 1.535 1.169 1.535.354 0 .626-.123.892-.408l-.046.344h.916l.736-4.549h-.954z"/></g><g><path fill="#0c2d5a" d="M31.05 17.582l.018-.383c-.245.303-.571.447-1.014.447-.525 0-.884-.412-.884-1.01 0-.902.625-1.426 1.698-1.426.11 0 .25.01.394.029a.92.92 0 0 0 .038-.241c0-.245-.168-.336-.62-.336a3.2 3.2 0 0 0-1.024.166l.134-.832c.482-.142.8-.196 1.158-.196.83 0 1.271.376 1.27 1.085.002.19-.03.425-.078.733-.084.535-.264 1.685-.289 1.964h-.802zm-.119-1.668c-.548 0-.826.19-.826.567 0 .232.136.38.347.38.394 0 .679-.38.695-.932a1.575 1.575 0 0 0-.216-.015z"/></g><g><path fill="#0c2d5a" d="M28.594 13.927c.269 0 .52.07.865.245l.158-.987c-.142-.056-.64-.385-1.063-.385-.648 0-1.196.324-1.58.857-.562-.187-.793.19-1.076.568l-.251.059c.019-.124.036-.248.03-.372h-.889c-.12 1.145-.336 2.305-.504 3.45l-.044.25h.968c.161-1.057.25-1.733.304-2.191l.364-.204c.055-.204.225-.272.567-.264a4.182 4.182 0 0 0-.069.758c0 1.21.65 1.964 1.691 1.964.268 0 .499-.035.856-.133l.169-1.037c-.32.16-.583.234-.822.234-.562 0-.903-.418-.903-1.109 0-1.002.506-1.703 1.23-1.703"/></g><g><path fill="#0c2d5a" d="M23.361 15.309h-1.055c.088-.43.306-.669.61-.669.547 0 .45.59.445.669zm.544 2.188l.16-.92a2.268 2.268 0 0 1-1 .233c-.56 0-.901-.224-.836-.761h1.915c.083-.374.119-.638.119-.91 0-.818-.507-1.339-1.3-1.339-.97 0-1.683.931-1.683 2.196 0 1.084.561 1.65 1.638 1.65.337 0 .656-.047.987-.15z"/></g><g><path fill="#0c2d5a" d="M20.91 17.573c-.265.084-.471.12-.695.12-.494 0-.765-.286-.765-.812-.006-.164.072-.593.133-.986.056-.346.42-2.525.42-2.525h.961l-.112.56h.494l-.132.889h-.495c-.112.704-.271 1.58-.273 1.696 0 .191.101.274.332.274.11 0 .195-.01.26-.035l-.128.82"/></g><g><path fill="#0c2d5a" d="M17.146 15.052c0 .469.226.79.737 1.034.392.185.452.24.452.408 0 .23-.172.335-.555.335a2.71 2.71 0 0 1-.867-.146l-.133.854c.22.048.416.092 1.007.11 1.02 0 1.492-.392 1.492-1.237 0-.509-.197-.807-.682-1.03-.405-.188-.452-.23-.452-.403 0-.2.16-.303.474-.303.19 0 .449.021.695.056l.138-.858c-.251-.04-.63-.072-.852-.072-1.083 0-1.457.569-1.454 1.252"/></g><g><path fill="#0c2d5a" d="M15.84 17.582l.018-.383c-.245.303-.571.447-1.014.447-.525 0-.884-.412-.884-1.01 0-.902.625-1.426 1.699-1.426.11 0 .25.01.394.029a.919.919 0 0 0 .038-.241c0-.245-.169-.336-.62-.336a3.195 3.195 0 0 0-1.025.166l.134-.832c.482-.142.8-.196 1.158-.196.831 0 1.271.376 1.27 1.085.002.19-.03.425-.078.733-.084.535-.264 1.685-.289 1.964h-.801zm-.118-1.668c-.549 0-.827.19-.827.567 0 .232.136.38.347.38.395 0 .679-.38.695-.932a1.585 1.585 0 0 0-.215-.015z"/></g><g><path fill="#0c2d5a" d="M13.47 17.639h-.968l.555-3.497-1.238 3.497h-.66l-.08-3.477-.583 3.477H9.59l.756-4.549h1.392l.039 2.816.938-2.816h1.503l-.748 4.549"/></g><g><path fill="#fffffe" d="M35.883 16.492c-.33 0-.496-.244-.496-.727 0-.725.311-1.24.75-1.24.333 0 .513.255.513.724 0 .73-.316 1.243-.767 1.243zm1.427.857l.737-4.549h-.954l-.215 1.315c-.264-.35-.548-.505-.924-.505-.853 0-1.574 1.037-1.574 2.268 0 .925.465 1.535 1.168 1.535.355 0 .627-.123.892-.409l-.045.345z"/></g><g><path fill="#fffffe" d="M32.959 13.55c-.122 1.145-.337 2.305-.505 3.45l-.044.25h.968c.346-2.263.43-2.705.972-2.65.087-.463.247-.868.367-1.073-.405-.085-.631.146-.928.584.024-.19.067-.373.059-.561h-.89"/></g><g><path fill="#fffffe" d="M31.33 17.292l.018-.383c-.245.303-.571.447-1.014.447-.525 0-.884-.412-.884-1.01 0-.902.625-1.426 1.698-1.426.11 0 .25.01.394.029a.92.92 0 0 0 .038-.241c0-.245-.168-.336-.62-.336a3.2 3.2 0 0 0-1.024.166l.134-.832c.482-.142.8-.196 1.158-.196.83 0 1.271.376 1.27 1.085.002.19-.03.425-.078.733-.084.535-.264 1.685-.289 1.964h-.802zm-.119-1.663c-.548 0-.826.19-.826.563 0 .23.136.377.347.377.394 0 .679-.377.695-.925a1.588 1.588 0 0 0-.216-.015z"/></g><g><path fill="#fffffe" d="M29.883 12.896l-.159.987c-.345-.174-.596-.245-.864-.245-.723 0-1.23.703-1.23 1.705 0 .69.341 1.107.904 1.107.238 0 .501-.074.822-.233l-.17 1.036c-.357.098-.587.134-.855.134-1.042 0-1.691-.754-1.691-1.964 0-1.626.897-2.763 2.18-2.763.422 0 .92.18 1.063.236"/></g><g><path fill="#fffffe" d="M25.07 13.55c-.123 1.145-.338 2.305-.506 3.45l-.044.25h.968c.346-2.263.43-2.705.972-2.65.087-.463.248-.868.367-1.073-.404-.085-.631.146-.927.584.023-.19.066-.373.058-.561h-.889"/></g><g><path fill="#fffffe" d="M23.654 15.013h-1.062c.09-.425.308-.66.615-.66.55 0 .453.583.447.66zm.54 2.194l.161-.92a2.268 2.268 0 0 1-1 .233c-.56 0-.901-.224-.836-.761h1.915c.083-.374.119-.638.119-.91 0-.818-.507-1.339-1.3-1.339-.97 0-1.683.931-1.683 2.196 0 1.084.561 1.65 1.638 1.65.337 0 .657-.047.987-.15z"/></g><g><path fill="#fffffe" d="M21.2 17.293c-.265.084-.471.12-.695.12-.494 0-.765-.286-.765-.812-.006-.164.072-.593.133-.986.056-.346.42-2.525.42-2.525h.961l-.112.56h.494l-.132.889h-.495c-.112.704-.271 1.58-.273 1.696 0 .191.101.274.332.274.11 0 .195-.01.26-.035l-.128.82"/></g><g><path fill="#fffffe" d="M17.426 14.762c0 .469.226.79.737 1.034.392.185.452.24.452.408 0 .23-.172.335-.555.335a2.71 2.71 0 0 1-.867-.146l-.133.854c.22.048.416.092 1.007.11 1.02 0 1.492-.392 1.492-1.237 0-.509-.197-.807-.682-1.03-.405-.188-.452-.23-.452-.403 0-.2.16-.303.474-.303.19 0 .449.021.695.056l.138-.858c-.251-.04-.63-.072-.852-.072-1.083 0-1.457.569-1.454 1.252"/></g><g><path fill="#fffffe" d="M16.12 17.292l.018-.383c-.245.303-.571.447-1.014.447-.525 0-.884-.412-.884-1.01 0-.902.625-1.426 1.699-1.426.11 0 .25.01.394.029a.919.919 0 0 0 .038-.241c0-.245-.169-.336-.62-.336a3.195 3.195 0 0 0-1.025.166l.134-.832c.482-.142.8-.196 1.158-.196.831 0 1.271.376 1.27 1.085.002.19-.03.425-.078.733-.084.535-.264 1.685-.289 1.964h-.801zm-.118-1.663c-.549 0-.827.19-.827.563 0 .23.136.377.347.377.395 0 .679-.377.695-.925a1.598 1.598 0 0 0-.215-.015z"/></g><g><path fill="#fffffe" d="M13.76 17.349h-.968l.555-3.497-1.238 3.497h-.66l-.08-3.477-.583 3.477H9.88l.756-4.549h1.392l.039 2.816.938-2.816h1.503l-.748 4.549"/></g></g></g></g></svg>