<svg xmlns="http://www.w3.org/2000/svg" width="48" height="30" viewBox="0 0 48 30"><g><g><g><g><path fill="#2890c3" d="M0 4a4 4 0 0 1 4-4h40a4 4 0 0 1 4 4v22a4 4 0 0 1-4 4H4a4 4 0 0 1-4-4z"/></g></g><g><g><path fill="#fff" d="M37.527 11.47l-.955 6.273a.198.198 0 0 0 .192.232h.96c.159 0 .294-.12.319-.282l.941-6.162a.198.198 0 0 0-.191-.231h-1.074a.196.196 0 0 0-.192.17"/></g><g><path fill="#fff" d="M36.217 13.518c.119 0 .21.11.191.232l-.602 3.939a.326.326 0 0 1-.319.281h-1.003c-.12 0-.21-.11-.191-.231l.05-.32s-.55.658-1.542.658c-.578 0-1.063-.172-1.403-.585-.37-.45-.521-1.093-.415-1.768.205-1.35 1.256-2.314 2.486-2.314.537 0 1.075.121 1.316.483l.078.116.049-.321a.196.196 0 0 1 .191-.17h1.114m-1.552 2.24c.049-.318-.019-.607-.19-.814-.169-.205-.425-.313-.742-.313-.634 0-1.147.455-1.248 1.107-.052.32.01.607.175.808.166.203.425.31.748.31.644 0 1.15-.44 1.257-1.098"/></g><g><path fill="#fff" d="M29.258 11.3c.778 0 1.364.213 1.695.614.3.365.4.887.297 1.55-.231 1.519-1.116 2.285-2.648 2.285h-.735a.326.326 0 0 0-.32.282l-.266 1.747a.229.229 0 0 1-.224.197h-1.193a.198.198 0 0 1-.192-.232l.94-6.161a.327.327 0 0 1 .32-.282h2.326m.278 2.25c.047-.302.01-.522-.114-.67-.205-.246-.604-.246-1.026-.246h-.162a.196.196 0 0 0-.192.169l-.248 1.61h.353c.62 0 1.261 0 1.39-.863"/></g><g><path fill="#fff" d="M25.56 13.52h-1.12a.32.32 0 0 0-.267.147l-1.545 2.349-.654-2.258a.325.325 0 0 0-.31-.238h-1.1c-.133 0-.226.135-.183.265l1.232 3.738-1.16 1.69c-.09.132.002.316.159.316h1.118a.321.321 0 0 0 .266-.144l3.722-5.55c.09-.133-.002-.315-.159-.315"/></g><g><path fill="#fff" d="M19.627 13.518c.119 0 .21.11.191.232l-.602 3.939a.326.326 0 0 1-.319.281h-1.003c-.12 0-.21-.11-.191-.231l.05-.32s-.55.658-1.542.658c-.578 0-1.063-.172-1.403-.585-.37-.45-.521-1.093-.415-1.768.205-1.35 1.256-2.314 2.486-2.314.537 0 1.075.121 1.316.483l.078.116.049-.321a.196.196 0 0 1 .191-.17h1.114m-1.552 2.24c.049-.318-.019-.607-.19-.814-.169-.205-.425-.313-.742-.313-.634 0-1.147.455-1.248 1.107-.052.32.01.607.175.808.166.203.425.31.748.31.644 0 1.15-.44 1.257-1.098"/></g><g><path fill="#fff" d="M12.678 11.3c.778 0 1.364.213 1.695.614.3.365.4.887.297 1.55-.231 1.519-1.116 2.285-2.648 2.285h-.735a.326.326 0 0 0-.32.282l-.254 1.662a.327.327 0 0 1-.319.282h-1.11a.198.198 0 0 1-.192-.232l.94-6.161a.327.327 0 0 1 .32-.282h2.326m.281 2.25c.047-.302.01-.522-.114-.67-.206-.246-.607-.246-1.03-.246h-.163a.197.197 0 0 0-.193.169l-.249 1.61h.354c.623 0 1.267 0 1.395-.863"/></g></g></g></g></svg>