<svg xmlns="http://www.w3.org/2000/svg" width="21" height="20" viewBox="0 0 21 20"><defs><clipPath id="jqjla"><path d="M16.78 16c1.1 0 2 .9 2 2s-.9 2-2 2-1.99-.9-1.99-2 .89-2 1.99-2zM.78 0h3.27l.94 2h14.79a1.003 1.003 0 0 1 .88 1.48l-3.58 6.49c-.34.62-1 1.03-1.75 1.03H7.88l-.9 1.63-.03.12c0 .14.11.25.25.25h11.58v2h-12c-1.1 0-2-.9-2-2 0-.35.09-.68.25-.96l1.35-2.45L2.78 2h-2zm6 16c1.1 0 2 .9 2 2s-.9 2-2 2-1.99-.9-1.99-2 .89-2 1.99-2z"/></clipPath></defs><g><g><g/><g clip-path="url(#jqjla)"><g><path fill="#4d4d4d" d="M-2.22-3h26v26h-26z"/></g></g></g></g></svg>