<svg xmlns="http://www.w3.org/2000/svg" width="18" height="15" viewBox="0 0 18 15"><defs><clipPath id="kpjra"><path d="M18 1.775a7.189 7.189 0 0 1-2.121.596A3.785 3.785 0 0 0 17.503.277a7.285 7.285 0 0 1-2.345.918A3.65 3.65 0 0 0 12.461 0C10.421 0 8.77 1.695 8.77 3.786c0 .297.032.587.095.863-3.069-.158-5.79-1.665-7.612-3.956a3.85 3.85 0 0 0-.5 1.904c0 1.314.653 2.472 1.643 3.152a3.612 3.612 0 0 1-1.672-.474v.048c0 1.835 1.272 3.365 2.962 3.713a3.63 3.63 0 0 1-1.667.066c.469 1.503 1.833 2.598 3.449 2.63A7.292 7.292 0 0 1 0 13.3 10.273 10.273 0 0 0 5.66 15c6.793 0 10.508-5.77 10.508-10.774 0-.164-.004-.328-.011-.49A7.6 7.6 0 0 0 18 1.776z"/></clipPath></defs><g><g><g/><g clip-path="url(#kpjra)"><g><path fill="#4d4d4d" d="M-4-6h26v26H-4z"/></g></g></g></g></svg>