<svg xmlns="http://www.w3.org/2000/svg" width="48" height="30" viewBox="0 0 48 30"><g><g><g><g><path fill="#0066b2" d="M0 4a4 4 0 0 1 4-4h40a4 4 0 0 1 4 4v22a4 4 0 0 1-4 4H4a4 4 0 0 1-4-4z"/></g></g><g><g><g><path fill="#fff" d="M38.113 18.483v-.11h.054c.02 0 .048-.003.066.007a.055.055 0 0 1 .024.045c0 .019-.008.04-.025.05-.019.01-.041.008-.063.008zm0 .233v-.166h.072l.063.166h.109l-.077-.184a.114.114 0 0 0 .073-.109.128.128 0 0 0-.053-.105c-.033-.02-.07-.02-.107-.02h-.178v.418zm.064.164a.365.365 0 0 1-.362-.368c0-.203.162-.367.362-.367.201 0 .363.164.363.367a.365.365 0 0 1-.363.368zm-.477-.373a.477.477 0 1 0 .955 0 .477.477 0 0 0-.955 0z"/></g></g><g><path fill="#fff" d="M35.34 19.016l-.27-1.308h-2.934l-.48 1.308H29.25l3.441-8.15s.21-.656 1.066-.656h1.855l1.847 8.806zm-2.539-3.121h1.905l-.686-3.293z"/></g><g><path fill="#fff" d="M29.43 12.325l.33-1.891s-1.017-.384-2.076-.384c-1.146 0-3.865.497-3.865 2.915 0 2.276 3.192 2.304 3.192 3.498 0 1.195-2.863.981-3.808.228l-.343 1.977s1.03.497 2.605.497c1.574 0 3.95-.81 3.95-3.014 0-2.29-3.22-2.504-3.22-3.499 0-.996 2.248-.868 3.235-.327"/></g><g><path fill="#fff" d="M21.438 19.016H19.13l1.442-8.806h2.308l-1.443 8.806"/></g><g><path fill="#fff" d="M17.19 10.21h2.485l-3.672 8.806H13.6l-2.004-7.65c.33.198.671.43 1.01.703 1.604 1.29 2.126 2.898 2.126 2.898l-.777-3.963s-.093-.794-1.095-.794c1.002 0 1.095.793 1.095.793l.777 3.96.26 1.304 2.2-6.057m-8.011.149l.043-.149-.043.149z"/></g><g><path fill="#f9a533" d="M14.73 14.963l-.776-3.96s-.093-.793-1.094-.793H9.223l-.043.149s1.749.36 3.425 1.708c1.604 1.29 2.126 2.896 2.126 2.896"/></g></g></g></g></svg>